<svg id="visual" viewBox="0 0 2560 1440" width="2560" height="1440" xmlns="http://www.w3.org/2000/svg" xmlns:xlink="http://www.w3.org/1999/xlink" version="1.1"><path d="M0 131L38.8 157.3C77.7 183.7 155.3 236.3 232.8 265C310.3 293.7 387.7 298.3 465.2 303.2C542.7 308 620.3 313 698 284.3C775.7 255.7 853.3 193.3 931 183.7C1008.7 174 1086.3 217 1163.8 241C1241.3 265 1318.7 270 1396.2 265.2C1473.7 260.3 1551.3 245.7 1629 236C1706.7 226.3 1784.3 221.7 1862 226.5C1939.7 231.3 2017.3 245.7 2094.8 248C2172.3 250.3 2249.7 240.7 2327.2 219.2C2404.7 197.7 2482.3 164.3 2521.2 147.7L2560 131L2560 0L2521.2 0C2482.3 0 2404.7 0 2327.2 0C2249.7 0 2172.3 0 2094.8 0C2017.3 0 1939.7 0 1862 0C1784.3 0 1706.7 0 1629 0C1551.3 0 1473.7 0 1396.2 0C1318.7 0 1241.3 0 1163.8 0C1086.3 0 1008.7 0 931 0C853.3 0 775.7 0 698 0C620.3 0 542.7 0 465.2 0C387.7 0 310.3 0 232.8 0C155.3 0 77.7 0 38.8 0L0 0Z" fill="#f2f3d9"></path><path d="M0 217L38.8 257.8C77.7 298.7 155.3 380.3 232.8 416.3C310.3 452.3 387.7 442.7 465.2 433C542.7 423.3 620.3 413.7 698 382.5C775.7 351.3 853.3 298.7 931 308.3C1008.7 318 1086.3 390 1163.8 433.2C1241.3 476.3 1318.7 490.7 1396.2 466.7C1473.7 442.7 1551.3 380.3 1629 366C1706.7 351.7 1784.3 385.3 1862 399.7C1939.7 414 2017.3 409 2094.8 418.5C2172.3 428 2249.7 452 2327.2 423.2C2404.7 394.3 2482.3 312.7 2521.2 271.8L2560 231L2560 129L2521.2 145.7C2482.3 162.3 2404.7 195.7 2327.2 217.2C2249.7 238.7 2172.3 248.3 2094.8 246C2017.3 243.7 1939.7 229.3 1862 224.5C1784.3 219.7 1706.7 224.3 1629 234C1551.3 243.7 1473.7 258.3 1396.2 263.2C1318.7 268 1241.3 263 1163.8 239C1086.3 215 1008.7 172 931 181.7C853.3 191.3 775.7 253.7 698 282.3C620.3 311 542.7 306 465.2 301.2C387.7 296.3 310.3 291.7 232.8 263C155.3 234.3 77.7 181.7 38.8 155.3L0 129Z" fill="#d8d9c0"></path><path d="M0 836L38.8 836C77.7 836 155.3 836 232.8 833.7C310.3 831.3 387.7 826.7 465.2 814.7C542.7 802.7 620.3 783.3 698 783.3C775.7 783.3 853.3 802.7 931 812.3C1008.7 822 1086.3 822 1163.8 812.3C1241.3 802.7 1318.7 783.3 1396.2 785.7C1473.7 788 1551.3 812 1629 807.2C1706.7 802.3 1784.3 768.7 1862 771.2C1939.7 773.7 2017.3 812.3 2094.8 822C2172.3 831.7 2249.7 812.3 2327.2 793C2404.7 773.7 2482.3 754.3 2521.2 744.7L2560 735L2560 229L2521.2 269.8C2482.3 310.7 2404.7 392.3 2327.2 421.2C2249.7 450 2172.3 426 2094.8 416.5C2017.3 407 1939.7 412 1862 397.7C1784.3 383.3 1706.7 349.7 1629 364C1551.3 378.3 1473.7 440.7 1396.2 464.7C1318.7 488.7 1241.3 474.3 1163.8 431.2C1086.3 388 1008.7 316 931 306.3C853.3 296.7 775.7 349.3 698 380.5C620.3 411.7 542.7 421.3 465.2 431C387.7 440.7 310.3 450.3 232.8 414.3C155.3 378.3 77.7 296.7 38.8 255.8L0 215Z" fill="#bfc0a8"></path><path d="M0 1139L38.8 1134.2C77.7 1129.3 155.3 1119.7 232.8 1119.7C310.3 1119.7 387.7 1129.3 465.2 1114.8C542.7 1100.3 620.3 1061.7 698 1054.3C775.7 1047 853.3 1071 931 1068.7C1008.7 1066.3 1086.3 1037.7 1163.8 1018.5C1241.3 999.3 1318.7 989.7 1396.2 1011.3C1473.7 1033 1551.3 1086 1629 1093.2C1706.7 1100.3 1784.3 1061.7 1862 1037.7C1939.7 1013.7 2017.3 1004.3 2094.8 997.2C2172.3 990 2249.7 985 2327.2 985C2404.7 985 2482.3 990 2521.2 992.5L2560 995L2560 733L2521.2 742.7C2482.3 752.3 2404.7 771.7 2327.2 791C2249.7 810.3 2172.3 829.7 2094.8 820C2017.3 810.3 1939.7 771.7 1862 769.2C1784.3 766.7 1706.7 800.3 1629 805.2C1551.3 810 1473.7 786 1396.2 783.7C1318.7 781.3 1241.3 800.7 1163.8 810.3C1086.3 820 1008.7 820 931 810.3C853.3 800.7 775.7 781.3 698 781.3C620.3 781.3 542.7 800.7 465.2 812.7C387.7 824.7 310.3 829.3 232.8 831.7C155.3 834 77.7 834 38.8 834L0 834Z" fill="#a7a890"></path><path d="M0 1441L38.8 1441C77.7 1441 155.3 1441 232.8 1441C310.3 1441 387.7 1441 465.2 1441C542.7 1441 620.3 1441 698 1441C775.7 1441 853.3 1441 931 1441C1008.7 1441 1086.3 1441 1163.8 1441C1241.3 1441 1318.7 1441 1396.2 1441C1473.7 1441 1551.3 1441 1629 1441C1706.7 1441 1784.3 1441 1862 1441C1939.7 1441 2017.3 1441 2094.8 1441C2172.3 1441 2249.7 1441 2327.2 1441C2404.7 1441 2482.3 1441 2521.2 1441L2560 1441L2560 993L2521.2 990.5C2482.3 988 2404.7 983 2327.2 983C2249.7 983 2172.3 988 2094.8 995.2C2017.3 1002.3 1939.7 1011.7 1862 1035.7C1784.3 1059.7 1706.7 1098.3 1629 1091.2C1551.3 1084 1473.7 1031 1396.2 1009.3C1318.7 987.7 1241.3 997.3 1163.8 1016.5C1086.3 1035.7 1008.7 1064.3 931 1066.7C853.3 1069 775.7 1045 698 1052.3C620.3 1059.7 542.7 1098.3 465.2 1112.8C387.7 1127.3 310.3 1117.7 232.8 1117.7C155.3 1117.7 77.7 1127.3 38.8 1132.2L0 1137Z" fill="#8f9079"></path></svg>