<svg id="visual" viewBox="0 0 2560 1440" width="2560" height="1440" xmlns="http://www.w3.org/2000/svg" xmlns:xlink="http://www.w3.org/1999/xlink" version="1.1"><path d="M0 231L38.8 214.3C77.7 197.7 155.3 164.3 232.8 150C310.3 135.7 387.7 140.3 465.2 145C542.7 149.7 620.3 154.3 698 164C775.7 173.7 853.3 188.3 931 190.8C1008.7 193.3 1086.3 183.7 1163.8 174C1241.3 164.3 1318.7 154.7 1396.2 166.7C1473.7 178.7 1551.3 212.3 1629 202.7C1706.7 193 1784.3 140 1862 123.2C1939.7 106.3 2017.3 125.7 2094.8 135.3C2172.3 145 2249.7 145 2327.2 137.8C2404.7 130.7 2482.3 116.3 2521.2 109.2L2560 102L2560 0L2521.2 0C2482.3 0 2404.7 0 2327.2 0C2249.7 0 2172.3 0 2094.8 0C2017.3 0 1939.7 0 1862 0C1784.3 0 1706.7 0 1629 0C1551.3 0 1473.7 0 1396.2 0C1318.7 0 1241.3 0 1163.8 0C1086.3 0 1008.7 0 931 0C853.3 0 775.7 0 698 0C620.3 0 542.7 0 465.2 0C387.7 0 310.3 0 232.8 0C155.3 0 77.7 0 38.8 0L0 0Z" fill="#63264a"></path><path d="M0 462L38.8 466.8C77.7 471.7 155.3 481.3 232.8 459.7C310.3 438 387.7 385 465.2 358.5C542.7 332 620.3 332 698 344C775.7 356 853.3 380 931 394.5C1008.7 409 1086.3 414 1163.8 428.5C1241.3 443 1318.7 467 1396.2 486.2C1473.7 505.3 1551.3 519.7 1629 486C1706.7 452.3 1784.3 370.7 1862 356.2C1939.7 341.7 2017.3 394.3 2094.8 435.2C2172.3 476 2249.7 505 2327.2 481C2404.7 457 2482.3 380 2521.2 341.5L2560 303L2560 100L2521.2 107.2C2482.3 114.3 2404.7 128.7 2327.2 135.8C2249.7 143 2172.3 143 2094.8 133.3C2017.3 123.7 1939.7 104.3 1862 121.2C1784.3 138 1706.7 191 1629 200.7C1551.3 210.3 1473.7 176.7 1396.2 164.7C1318.7 152.7 1241.3 162.3 1163.8 172C1086.3 181.7 1008.7 191.3 931 188.8C853.3 186.3 775.7 171.7 698 162C620.3 152.3 542.7 147.7 465.2 143C387.7 138.3 310.3 133.7 232.8 148C155.3 162.3 77.7 195.7 38.8 212.3L0 229Z" fill="#5a1f45"></path><path d="M0 851L38.8 851C77.7 851 155.3 851 232.8 848.5C310.3 846 387.7 841 465.2 855.3C542.7 869.7 620.3 903.3 698 905.8C775.7 908.3 853.3 879.7 931 896.5C1008.7 913.3 1086.3 975.7 1163.8 999.7C1241.3 1023.7 1318.7 1009.3 1396.2 963.7C1473.7 918 1551.3 841 1629 807.3C1706.7 773.7 1784.3 783.3 1862 778.5C1939.7 773.7 2017.3 754.3 2094.8 783.2C2172.3 812 2249.7 889 2327.2 874.7C2404.7 860.3 2482.3 754.7 2521.2 701.8L2560 649L2560 301L2521.2 339.5C2482.3 378 2404.7 455 2327.2 479C2249.7 503 2172.3 474 2094.8 433.2C2017.3 392.3 1939.7 339.7 1862 354.2C1784.3 368.7 1706.7 450.3 1629 484C1551.3 517.7 1473.7 503.3 1396.2 484.2C1318.7 465 1241.3 441 1163.8 426.5C1086.3 412 1008.7 407 931 392.5C853.3 378 775.7 354 698 342C620.3 330 542.7 330 465.2 356.5C387.7 383 310.3 436 232.8 457.7C155.3 479.3 77.7 469.7 38.8 464.8L0 460Z" fill="#501841"></path><path d="M0 980L38.8 984.8C77.7 989.7 155.3 999.3 232.8 1006.5C310.3 1013.7 387.7 1018.3 465.2 1044.7C542.7 1071 620.3 1119 698 1123.8C775.7 1128.7 853.3 1090.3 931 1097.7C1008.7 1105 1086.3 1158 1163.8 1167.7C1241.3 1177.3 1318.7 1143.7 1396.2 1112.3C1473.7 1081 1551.3 1052 1629 1042.3C1706.7 1032.7 1784.3 1042.3 1862 1035.2C1939.7 1028 2017.3 1004 2094.8 1018.5C2172.3 1033 2249.7 1086 2327.2 1052.5C2404.7 1019 2482.3 899 2521.2 839L2560 779L2560 647L2521.2 699.8C2482.3 752.7 2404.7 858.3 2327.2 872.7C2249.7 887 2172.3 810 2094.8 781.2C2017.3 752.3 1939.7 771.7 1862 776.5C1784.3 781.3 1706.7 771.7 1629 805.3C1551.3 839 1473.7 916 1396.2 961.7C1318.7 1007.3 1241.3 1021.7 1163.8 997.7C1086.3 973.7 1008.7 911.3 931 894.5C853.3 877.7 775.7 906.3 698 903.8C620.3 901.3 542.7 867.7 465.2 853.3C387.7 839 310.3 844 232.8 846.5C155.3 849 77.7 849 38.8 849L0 849Z" fill="#46123c"></path><path d="M0 1441L38.8 1441C77.7 1441 155.3 1441 232.8 1441C310.3 1441 387.7 1441 465.2 1441C542.7 1441 620.3 1441 698 1441C775.7 1441 853.3 1441 931 1441C1008.7 1441 1086.3 1441 1163.8 1441C1241.3 1441 1318.7 1441 1396.2 1441C1473.7 1441 1551.3 1441 1629 1441C1706.7 1441 1784.3 1441 1862 1441C1939.7 1441 2017.3 1441 2094.8 1441C2172.3 1441 2249.7 1441 2327.2 1441C2404.7 1441 2482.3 1441 2521.2 1441L2560 1441L2560 777L2521.2 837C2482.3 897 2404.7 1017 2327.2 1050.5C2249.7 1084 2172.3 1031 2094.8 1016.5C2017.3 1002 1939.7 1026 1862 1033.2C1784.3 1040.3 1706.7 1030.7 1629 1040.3C1551.3 1050 1473.7 1079 1396.2 1110.3C1318.7 1141.7 1241.3 1175.3 1163.8 1165.7C1086.3 1156 1008.7 1103 931 1095.7C853.3 1088.3 775.7 1126.7 698 1121.8C620.3 1117 542.7 1069 465.2 1042.7C387.7 1016.3 310.3 1011.7 232.8 1004.5C155.3 997.3 77.7 987.7 38.8 982.8L0 978Z" fill="#3d0b37"></path></svg>