<?xml version="1.0" standalone="no"?>
<svg viewBox="0 0 200 200" xmlns="http://www.w3.org/2000/svg">
  <path fill="#030027" d="M28.7,-45.8C35.5,-40.2,38.3,-29.5,44.9,-19.3C51.5,-9,61.9,0.7,63.4,11C64.9,21.4,57.5,32.4,48.5,41.2C39.6,50,29,56.5,17.3,60.7C5.6,64.8,-7.2,66.7,-20.1,64.6C-32.9,62.5,-45.7,56.6,-52.4,46.6C-59.2,36.7,-59.9,22.7,-61,9.3C-62.1,-4.1,-63.5,-16.8,-59.6,-27.9C-55.7,-39,-46.4,-48.4,-35.6,-52.2C-24.8,-56,-12.4,-54.1,-0.7,-52.9C10.9,-51.8,21.8,-51.3,28.7,-45.8Z" transform="translate(100 100)" />
</svg>
