<svg id="visual" viewBox="0 0 2560 1440" width="2560" height="1440" xmlns="http://www.w3.org/2000/svg" xmlns:xlink="http://www.w3.org/1999/xlink" version="1.1"><g stroke-width="1" stroke-linejoin="bevel"><path d="M1173.8 697L1388.2 454L1125.8 503Z" fill="#4c153f" stroke="#4c153f"></path><path d="M1173.8 697L1416.2 741L1388.2 454Z" fill="#501841" stroke="#501841"></path><path d="M1388.2 454L1148.8 276L1125.8 503Z" fill="#541b43" stroke="#541b43"></path><path d="M1670.7 212L1426.2 244L1388.2 454Z" fill="#581e45" stroke="#581e45"></path><path d="M1388.2 454L1426.2 244L1148.8 276Z" fill="#45103b" stroke="#45103b"></path><path d="M859.3 755L1157.8 948L1173.8 697Z" fill="#5b2046" stroke="#5b2046"></path><path d="M1173.8 697L1157.8 948L1416.2 741Z" fill="#4c153f" stroke="#4c153f"></path><path d="M1148.8 276L885.3 492L1125.8 503Z" fill="#3d0b37" stroke="#3d0b37"></path><path d="M1125.8 503L859.3 755L1173.8 697Z" fill="#5b2046" stroke="#5b2046"></path><path d="M1157.8 948L1440.2 940L1416.2 741Z" fill="#541b43" stroke="#541b43"></path><path d="M1416.2 741L1744.7 506L1388.2 454Z" fill="#541b43" stroke="#541b43"></path><path d="M885.3 492L859.3 755L1125.8 503Z" fill="#48133d" stroke="#48133d"></path><path d="M1740.7 754L1744.7 506L1416.2 741Z" fill="#3d0b37" stroke="#3d0b37"></path><path d="M1440.2 940L1740.7 754L1416.2 741Z" fill="#3d0b37" stroke="#3d0b37"></path><path d="M1744.7 506L1670.7 212L1388.2 454Z" fill="#48133d" stroke="#48133d"></path><path d="M1109.8 0L815.3 268L1148.8 276Z" fill="#3d0b37" stroke="#3d0b37"></path><path d="M859.3 755L881.3 952L1157.8 948Z" fill="#45103b" stroke="#45103b"></path><path d="M1148.8 276L815.3 268L885.3 492Z" fill="#4c153f" stroke="#4c153f"></path><path d="M885.3 492L565.9 714L859.3 755Z" fill="#4c153f" stroke="#4c153f"></path><path d="M1386.2 0L1148.8 276L1426.2 244Z" fill="#63264a" stroke="#63264a"></path><path d="M1670.7 212L1386.2 0L1426.2 244Z" fill="#501841" stroke="#501841"></path><path d="M1440.2 940L1693.7 979L1740.7 754Z" fill="#45103b" stroke="#45103b"></path><path d="M1683.7 1181L1693.7 979L1440.2 940Z" fill="#3d0b37" stroke="#3d0b37"></path><path d="M1422.2 1214L1440.2 940L1157.8 948Z" fill="#5b2046" stroke="#5b2046"></path><path d="M1386.2 0L1109.8 0L1148.8 276Z" fill="#581e45" stroke="#581e45"></path><path d="M881.3 952L1143.8 1192L1157.8 948Z" fill="#581e45" stroke="#581e45"></path><path d="M1143.8 1192L1422.2 1214L1157.8 948Z" fill="#5f2348" stroke="#5f2348"></path><path d="M529.9 476L565.9 714L885.3 492Z" fill="#581e45" stroke="#581e45"></path><path d="M859.3 755L552.9 942L881.3 952Z" fill="#4c153f" stroke="#4c153f"></path><path d="M881.3 952L845.3 1214L1143.8 1192Z" fill="#501841" stroke="#501841"></path><path d="M1109.8 0L824.3 0L815.3 268Z" fill="#5f2348" stroke="#5f2348"></path><path d="M815.3 268L529.9 476L885.3 492Z" fill="#45103b" stroke="#45103b"></path><path d="M1960.1 0L1726.7 0L1670.7 212Z" fill="#45103b" stroke="#45103b"></path><path d="M1670.7 212L1726.7 0L1386.2 0Z" fill="#410e39" stroke="#410e39"></path><path d="M1422.2 1214L1683.7 1181L1440.2 940Z" fill="#581e45" stroke="#581e45"></path><path d="M1987.1 985L1999.1 758L1740.7 754Z" fill="#4c153f" stroke="#4c153f"></path><path d="M1740.7 754L1999.1 758L1744.7 506Z" fill="#45103b" stroke="#45103b"></path><path d="M1744.7 506L2016.1 230L1670.7 212Z" fill="#63264a" stroke="#63264a"></path><path d="M1987.1 985L1740.7 754L1693.7 979Z" fill="#4c153f" stroke="#4c153f"></path><path d="M538.9 205L529.9 476L815.3 268Z" fill="#4c153f" stroke="#4c153f"></path><path d="M1999.1 758L2023.1 507L1744.7 506Z" fill="#3d0b37" stroke="#3d0b37"></path><path d="M569.9 1177L845.3 1214L881.3 952Z" fill="#501841" stroke="#501841"></path><path d="M1143.8 1192L1161.8 1440L1422.2 1214Z" fill="#45103b" stroke="#45103b"></path><path d="M259.4 749L552.9 942L565.9 714Z" fill="#5b2046" stroke="#5b2046"></path><path d="M565.9 714L552.9 942L859.3 755Z" fill="#3d0b37" stroke="#3d0b37"></path><path d="M2023.1 507L2016.1 230L1744.7 506Z" fill="#45103b" stroke="#45103b"></path><path d="M599.9 0L538.9 205L815.3 268Z" fill="#410e39" stroke="#410e39"></path><path d="M1683.7 1181L1987.1 985L1693.7 979Z" fill="#581e45" stroke="#581e45"></path><path d="M1999.1 758L2242.6 733L2023.1 507Z" fill="#4c153f" stroke="#4c153f"></path><path d="M845.3 1214L1161.8 1440L1143.8 1192Z" fill="#501841" stroke="#501841"></path><path d="M1422.2 1214L1700.7 1440L1683.7 1181Z" fill="#541b43" stroke="#541b43"></path><path d="M1161.8 1440L1414.2 1440L1422.2 1214Z" fill="#5b2046" stroke="#5b2046"></path><path d="M1683.7 1181L1957.1 1236L1987.1 985Z" fill="#541b43" stroke="#541b43"></path><path d="M824.3 0L599.9 0L815.3 268Z" fill="#581e45" stroke="#581e45"></path><path d="M2016.1 230L1960.1 0L1670.7 212Z" fill="#581e45" stroke="#581e45"></path><path d="M845.3 1214L815.3 1440L1161.8 1440Z" fill="#4c153f" stroke="#4c153f"></path><path d="M552.9 942L569.9 1177L881.3 952Z" fill="#5f2348" stroke="#5f2348"></path><path d="M1700.7 1440L1957.1 1236L1683.7 1181Z" fill="#581e45" stroke="#581e45"></path><path d="M1414.2 1440L1700.7 1440L1422.2 1214Z" fill="#45103b" stroke="#45103b"></path><path d="M250.4 231L529.9 476L538.9 205Z" fill="#581e45" stroke="#581e45"></path><path d="M250.4 231L299.4 510L529.9 476Z" fill="#541b43" stroke="#541b43"></path><path d="M529.9 476L299.4 510L565.9 714Z" fill="#501841" stroke="#501841"></path><path d="M552.9 942L298.4 993L569.9 1177Z" fill="#5b2046" stroke="#5b2046"></path><path d="M1987.1 985L2242.6 733L1999.1 758Z" fill="#4c153f" stroke="#4c153f"></path><path d="M2023.1 507L2285.6 506L2016.1 230Z" fill="#5b2046" stroke="#5b2046"></path><path d="M2016.1 230L2304.6 0L1960.1 0Z" fill="#63264a" stroke="#63264a"></path><path d="M2301.6 979L2242.6 733L1987.1 985Z" fill="#4c153f" stroke="#4c153f"></path><path d="M569.9 1177L815.3 1440L845.3 1214Z" fill="#410e39" stroke="#410e39"></path><path d="M2242.6 733L2285.6 506L2023.1 507Z" fill="#410e39" stroke="#410e39"></path><path d="M299.4 510L259.4 749L565.9 714Z" fill="#501841" stroke="#501841"></path><path d="M259.4 749L298.4 993L552.9 942Z" fill="#63264a" stroke="#63264a"></path><path d="M569.9 1177L568.9 1440L815.3 1440Z" fill="#541b43" stroke="#541b43"></path><path d="M293.4 0L250.4 231L538.9 205Z" fill="#410e39" stroke="#410e39"></path><path d="M299.4 510L0 479L259.4 749Z" fill="#581e45" stroke="#581e45"></path><path d="M2285.6 506L2308.6 243L2016.1 230Z" fill="#63264a" stroke="#63264a"></path><path d="M2306.6 1201L1987.1 985L1957.1 1236Z" fill="#5b2046" stroke="#5b2046"></path><path d="M2306.6 1201L2301.6 979L1987.1 985Z" fill="#5f2348" stroke="#5f2348"></path><path d="M2560 757L2560 456L2285.6 506Z" fill="#5f2348" stroke="#5f2348"></path><path d="M2285.6 506L2560 456L2308.6 243Z" fill="#3d0b37" stroke="#3d0b37"></path><path d="M1700.7 1440L1966.1 1440L1957.1 1236Z" fill="#48133d" stroke="#48133d"></path><path d="M277.4 1208L568.9 1440L569.9 1177Z" fill="#5b2046" stroke="#5b2046"></path><path d="M599.9 0L293.4 0L538.9 205Z" fill="#45103b" stroke="#45103b"></path><path d="M2308.6 243L2304.6 0L2016.1 230Z" fill="#581e45" stroke="#581e45"></path><path d="M0 1199L277.4 1208L298.4 993Z" fill="#501841" stroke="#501841"></path><path d="M298.4 993L277.4 1208L569.9 1177Z" fill="#410e39" stroke="#410e39"></path><path d="M2283.6 1440L2306.6 1201L1957.1 1236Z" fill="#581e45" stroke="#581e45"></path><path d="M2560 757L2285.6 506L2242.6 733Z" fill="#581e45" stroke="#581e45"></path><path d="M0 208L0 479L250.4 231Z" fill="#3d0b37" stroke="#3d0b37"></path><path d="M250.4 231L0 479L299.4 510Z" fill="#4c153f" stroke="#4c153f"></path><path d="M259.4 749L0 940L298.4 993Z" fill="#63264a" stroke="#63264a"></path><path d="M0 479L0 735L259.4 749Z" fill="#63264a" stroke="#63264a"></path><path d="M2560 757L2242.6 733L2301.6 979Z" fill="#63264a" stroke="#63264a"></path><path d="M2308.6 243L2560 0L2304.6 0Z" fill="#45103b" stroke="#45103b"></path><path d="M2560 980L2560 757L2301.6 979Z" fill="#48133d" stroke="#48133d"></path><path d="M0 0L0 208L250.4 231Z" fill="#63264a" stroke="#63264a"></path><path d="M2560 456L2560 253L2308.6 243Z" fill="#4c153f" stroke="#4c153f"></path><path d="M277.4 1208L273.4 1440L568.9 1440Z" fill="#541b43" stroke="#541b43"></path><path d="M0 1440L273.4 1440L277.4 1208Z" fill="#45103b" stroke="#45103b"></path><path d="M0 735L0 940L259.4 749Z" fill="#5f2348" stroke="#5f2348"></path><path d="M1966.1 1440L2283.6 1440L1957.1 1236Z" fill="#4c153f" stroke="#4c153f"></path><path d="M2306.6 1201L2560 980L2301.6 979Z" fill="#5b2046" stroke="#5b2046"></path><path d="M2560 1224L2560 980L2306.6 1201Z" fill="#5f2348" stroke="#5f2348"></path><path d="M293.4 0L0 0L250.4 231Z" fill="#410e39" stroke="#410e39"></path><path d="M2560 253L2560 0L2308.6 243Z" fill="#45103b" stroke="#45103b"></path><path d="M0 940L0 1199L298.4 993Z" fill="#3d0b37" stroke="#3d0b37"></path><path d="M2560 1440L2560 1224L2306.6 1201Z" fill="#3d0b37" stroke="#3d0b37"></path><path d="M0 1199L0 1440L277.4 1208Z" fill="#581e45" stroke="#581e45"></path><path d="M2283.6 1440L2560 1440L2306.6 1201Z" fill="#410e39" stroke="#410e39"></path></g></svg>