<svg id="visual" viewBox="0 0 2560 1440" width="2560" height="1440" xmlns="http://www.w3.org/2000/svg" xmlns:xlink="http://www.w3.org/1999/xlink" version="1.1"><rect x="0" y="0" width="2560" height="1440" fill="#004743"></rect><defs><linearGradient id="grad1_0" x1="43.8%" y1="0%" x2="100%" y2="100%"><stop offset="14.444444444444446%" stop-color="#030027" stop-opacity="1"></stop><stop offset="85.55555555555554%" stop-color="#030027" stop-opacity="1"></stop></linearGradient></defs><defs><linearGradient id="grad1_1" x1="43.8%" y1="0%" x2="100%" y2="100%"><stop offset="14.444444444444446%" stop-color="#030027" stop-opacity="1"></stop><stop offset="85.55555555555554%" stop-color="#00293f" stop-opacity="1"></stop></linearGradient></defs><defs><linearGradient id="grad1_2" x1="43.8%" y1="0%" x2="100%" y2="100%"><stop offset="14.444444444444446%" stop-color="#004743" stop-opacity="1"></stop><stop offset="85.55555555555554%" stop-color="#00293f" stop-opacity="1"></stop></linearGradient></defs><defs><linearGradient id="grad2_0" x1="0%" y1="0%" x2="56.3%" y2="100%"><stop offset="14.444444444444446%" stop-color="#030027" stop-opacity="1"></stop><stop offset="85.55555555555554%" stop-color="#030027" stop-opacity="1"></stop></linearGradient></defs><defs><linearGradient id="grad2_1" x1="0%" y1="0%" x2="56.3%" y2="100%"><stop offset="14.444444444444446%" stop-color="#00293f" stop-opacity="1"></stop><stop offset="85.55555555555554%" stop-color="#030027" stop-opacity="1"></stop></linearGradient></defs><defs><linearGradient id="grad2_2" x1="0%" y1="0%" x2="56.3%" y2="100%"><stop offset="14.444444444444446%" stop-color="#00293f" stop-opacity="1"></stop><stop offset="85.55555555555554%" stop-color="#004743" stop-opacity="1"></stop></linearGradient></defs><g transform="translate(2560, 0)"><path d="M0 1224C-107.7 1161.3 -215.4 1098.6 -349.8 1076.6C-484.2 1054.6 -645.4 1073.3 -719.4 990.2C-793.5 907.2 -780.4 722.3 -834.1 606C-887.7 489.7 -1008.1 441.9 -1084.2 352.3C-1160.3 262.7 -1192.2 131.3 -1224 0L0 0Z" fill="#003843"></path><path d="M0 816C-71.8 774.2 -143.6 732.4 -233.2 717.7C-322.8 703.1 -430.3 715.5 -479.6 660.2C-529 604.8 -520.3 481.6 -556.1 404C-591.8 326.5 -672.1 294.6 -722.8 234.9C-773.5 175.1 -794.8 87.6 -816 0L0 0Z" fill="#001936"></path><path d="M0 408C-35.9 387.1 -71.8 366.2 -116.6 358.9C-161.4 351.5 -215.1 357.8 -239.8 330.1C-264.5 302.4 -260.1 240.8 -278 202C-295.9 163.2 -336 147.3 -361.4 117.4C-386.8 87.6 -397.4 43.8 -408 0L0 0Z" fill="#030027"></path></g><g transform="translate(0, 1440)"><path d="M0 -1224C144.1 -1234.7 288.1 -1245.4 378.2 -1164.1C468.3 -1082.8 504.5 -909.4 594.8 -818.7C685.2 -728 829.7 -720 889.1 -646C948.5 -572 922.7 -432 964.4 -313.3C1006 -194.7 1115 -97.3 1224 0L0 0Z" fill="#003843"></path><path d="M0 -816C96 -823.1 192.1 -830.3 252.2 -776.1C312.2 -721.8 336.3 -606.3 396.6 -545.8C456.8 -485.4 553.1 -480 592.7 -430.7C632.3 -381.3 615.2 -288 642.9 -208.9C670.7 -129.8 743.3 -64.9 816 0L0 0Z" fill="#001936"></path><path d="M0 -408C48 -411.6 96 -415.1 126.1 -388C156.1 -360.9 168.2 -303.1 198.3 -272.9C228.4 -242.7 276.6 -240 296.4 -215.3C316.2 -190.7 307.6 -144 321.5 -104.4C335.3 -64.9 371.7 -32.4 408 0L0 0Z" fill="#030027"></path></g></svg>