<svg id="visual" viewBox="0 0 2560 1440" width="2560" height="1440" xmlns="http://www.w3.org/2000/svg" xmlns:xlink="http://www.w3.org/1999/xlink" version="1.1"><path d="M0 203L233 203L233 102L465 102L465 246L698 246L698 217L931 217L931 145L1164 145L1164 231L1396 231L1396 275L1629 275L1629 231L1862 231L1862 303L2095 303L2095 303L2327 303L2327 289L2560 289L2560 145L2560 0L2560 0L2327 0L2327 0L2095 0L2095 0L1862 0L1862 0L1629 0L1629 0L1396 0L1396 0L1164 0L1164 0L931 0L931 0L698 0L698 0L465 0L465 0L233 0L233 0L0 0Z" fill="#006f68"></path><path d="M0 764L233 764L233 663L465 663L465 635L698 635L698 462L931 462L931 447L1164 447L1164 735L1396 735L1396 534L1629 534L1629 476L1862 476L1862 894L2095 894L2095 822L2327 822L2327 649L2560 649L2560 707L2560 143L2560 287L2327 287L2327 301L2095 301L2095 301L1862 301L1862 229L1629 229L1629 273L1396 273L1396 229L1164 229L1164 143L931 143L931 215L698 215L698 244L465 244L465 100L233 100L233 201L0 201Z" fill="#00655e"></path><path d="M0 908L233 908L233 908L465 908L465 793L698 793L698 735L931 735L931 779L1164 779L1164 879L1396 879L1396 735L1629 735L1629 822L1862 822L1862 1081L2095 1081L2095 1067L2327 1067L2327 937L2560 937L2560 923L2560 705L2560 647L2327 647L2327 820L2095 820L2095 892L1862 892L1862 474L1629 474L1629 532L1396 532L1396 733L1164 733L1164 445L931 445L931 460L698 460L698 633L465 633L465 661L233 661L233 762L0 762Z" fill="#005b55"></path><path d="M0 1268L233 1268L233 1211L465 1211L465 1225L698 1225L698 1211L931 1211L931 1211L1164 1211L1164 1340L1396 1340L1396 1326L1629 1326L1629 1211L1862 1211L1862 1326L2095 1326L2095 1340L2327 1340L2327 1211L2560 1211L2560 1239L2560 921L2560 935L2327 935L2327 1065L2095 1065L2095 1079L1862 1079L1862 820L1629 820L1629 733L1396 733L1396 877L1164 877L1164 777L931 777L931 733L698 733L698 791L465 791L465 906L233 906L233 906L0 906Z" fill="#00514c"></path><path d="M0 1441L233 1441L233 1441L465 1441L465 1441L698 1441L698 1441L931 1441L931 1441L1164 1441L1164 1441L1396 1441L1396 1441L1629 1441L1629 1441L1862 1441L1862 1441L2095 1441L2095 1441L2327 1441L2327 1441L2560 1441L2560 1441L2560 1237L2560 1209L2327 1209L2327 1338L2095 1338L2095 1324L1862 1324L1862 1209L1629 1209L1629 1324L1396 1324L1396 1338L1164 1338L1164 1209L931 1209L931 1209L698 1209L698 1223L465 1223L465 1209L233 1209L233 1266L0 1266Z" fill="#004743"></path></svg>