<svg id="visual" viewBox="0 0 2560 1440" width="2560" height="1440" xmlns="http://www.w3.org/2000/svg" xmlns:xlink="http://www.w3.org/1999/xlink" version="1.1"><rect x="0" y="0" width="2560" height="1440" fill="#c0d684"></rect><defs><linearGradient id="grad1_0" x1="43.8%" y1="0%" x2="100%" y2="100%"><stop offset="14.444444444444446%" stop-color="#63264a" stop-opacity="1"></stop><stop offset="85.55555555555554%" stop-color="#63264a" stop-opacity="1"></stop></linearGradient></defs><defs><linearGradient id="grad1_1" x1="43.8%" y1="0%" x2="100%" y2="100%"><stop offset="14.444444444444446%" stop-color="#63264a" stop-opacity="1"></stop><stop offset="85.55555555555554%" stop-color="#a0524d" stop-opacity="1"></stop></linearGradient></defs><defs><linearGradient id="grad1_2" x1="43.8%" y1="0%" x2="100%" y2="100%"><stop offset="14.444444444444446%" stop-color="#c09155" stop-opacity="1"></stop><stop offset="85.55555555555554%" stop-color="#a0524d" stop-opacity="1"></stop></linearGradient></defs><defs><linearGradient id="grad1_3" x1="43.8%" y1="0%" x2="100%" y2="100%"><stop offset="14.444444444444446%" stop-color="#c09155" stop-opacity="1"></stop><stop offset="85.55555555555554%" stop-color="#c0d684" stop-opacity="1"></stop></linearGradient></defs><defs><linearGradient id="grad2_0" x1="0%" y1="0%" x2="56.3%" y2="100%"><stop offset="14.444444444444446%" stop-color="#63264a" stop-opacity="1"></stop><stop offset="85.55555555555554%" stop-color="#63264a" stop-opacity="1"></stop></linearGradient></defs><defs><linearGradient id="grad2_1" x1="0%" y1="0%" x2="56.3%" y2="100%"><stop offset="14.444444444444446%" stop-color="#a0524d" stop-opacity="1"></stop><stop offset="85.55555555555554%" stop-color="#63264a" stop-opacity="1"></stop></linearGradient></defs><defs><linearGradient id="grad2_2" x1="0%" y1="0%" x2="56.3%" y2="100%"><stop offset="14.444444444444446%" stop-color="#a0524d" stop-opacity="1"></stop><stop offset="85.55555555555554%" stop-color="#c09155" stop-opacity="1"></stop></linearGradient></defs><defs><linearGradient id="grad2_3" x1="0%" y1="0%" x2="56.3%" y2="100%"><stop offset="14.444444444444446%" stop-color="#c0d684" stop-opacity="1"></stop><stop offset="85.55555555555554%" stop-color="#c09155" stop-opacity="1"></stop></linearGradient></defs><g transform="translate(2560, 0)"><path d="M0 1440C-83.1 1292.4 -166.2 1144.7 -307.7 1148.5C-449.3 1152.3 -649.2 1307.5 -720 1247.1C-790.8 1186.7 -732.5 910.7 -788.4 788.4C-844.4 666.1 -1014.6 697.5 -1127.6 651C-1240.5 604.5 -1296.2 480.2 -1338.8 358.7C-1381.3 237.2 -1410.7 118.6 -1440 0L0 0Z" fill="#c4b366"></path><path d="M0 1080C-62.3 969.3 -124.7 858.5 -230.8 861.4C-336.9 864.2 -486.9 980.6 -540 935.3C-593.1 890 -549.4 683 -591.3 591.3C-633.3 499.6 -760.9 523.1 -845.7 488.3C-930.4 453.4 -972.2 360.1 -1004.1 269C-1036 177.9 -1058 89 -1080 0L0 0Z" fill="#b4704e"></path><path d="M0 720C-41.6 646.2 -83.1 572.4 -153.9 574.2C-224.6 576.1 -324.6 653.7 -360 623.5C-395.4 593.3 -366.2 455.4 -394.2 394.2C-422.2 333.1 -507.3 348.7 -563.8 325.5C-620.3 302.3 -648.1 240.1 -669.4 179.4C-690.7 118.6 -705.3 59.3 -720 0L0 0Z" fill="#85394d"></path><path d="M0 360C-20.8 323.1 -41.6 286.2 -76.9 287.1C-112.3 288.1 -162.3 326.9 -180 311.8C-197.7 296.7 -183.1 227.7 -197.1 197.1C-211.1 166.5 -253.6 174.4 -281.9 162.8C-310.1 151.1 -324.1 120 -334.7 89.7C-345.3 59.3 -352.7 29.7 -360 0L0 0Z" fill="#63264a"></path></g><g transform="translate(0, 1440)"><path d="M0 -1440C99.6 -1327 199.2 -1214 320.4 -1195.8C441.6 -1177.7 584.4 -1254.4 720 -1247.1C855.6 -1239.7 984.1 -1148.4 1011.2 -1011.2C1038.2 -874 963.9 -691 1005.5 -580.5C1047 -470 1204.5 -432 1296.3 -347.3C1388 -262.7 1414 -131.3 1440 0L0 0Z" fill="#c4b366"></path><path d="M0 -1080C74.7 -995.2 149.4 -910.5 240.3 -896.9C331.2 -883.3 438.3 -940.8 540 -935.3C641.7 -929.8 738.1 -861.3 758.4 -758.4C778.7 -655.5 722.9 -518.2 754.1 -435.4C785.3 -352.5 903.4 -324 972.2 -260.5C1041 -197 1060.5 -98.5 1080 0L0 0Z" fill="#b4704e"></path><path d="M0 -720C49.8 -663.5 99.6 -607 160.2 -597.9C220.8 -588.8 292.2 -627.2 360 -623.5C427.8 -619.9 492 -574.2 505.6 -505.6C519.1 -437 481.9 -345.5 502.7 -290.3C523.5 -235 602.3 -216 648.1 -173.7C694 -131.3 707 -65.7 720 0L0 0Z" fill="#85394d"></path><path d="M0 -360C24.9 -331.7 49.8 -303.5 80.1 -299C110.4 -294.4 146.1 -313.6 180 -311.8C213.9 -309.9 246 -287.1 252.8 -252.8C259.6 -218.5 241 -172.7 251.4 -145.1C261.8 -117.5 301.1 -108 324.1 -86.8C347 -65.7 353.5 -32.8 360 0L0 0Z" fill="#63264a"></path></g></svg>