<svg id="visual" viewBox="0 0 2560 1440" width="2560" height="1440" xmlns="http://www.w3.org/2000/svg" xmlns:xlink="http://www.w3.org/1999/xlink" version="1.1"><path d="M0 606L233 606L233 390L465 390L465 491L698 491L698 217L931 217L931 174L1164 174L1164 563L1396 563L1396 534L1629 534L1629 231L1862 231L1862 289L2095 289L2095 606L2327 606L2327 390L2560 390L2560 563L2560 0L2560 0L2327 0L2327 0L2095 0L2095 0L1862 0L1862 0L1629 0L1629 0L1396 0L1396 0L1164 0L1164 0L931 0L931 0L698 0L698 0L465 0L465 0L233 0L233 0L0 0Z" fill="#f3f9d2"></path><path d="M0 735L233 735L233 505L465 505L465 735L698 735L698 303L931 303L931 419L1164 419L1164 707L1396 707L1396 620L1629 620L1629 332L1862 332L1862 462L2095 462L2095 750L2327 750L2327 606L2560 606L2560 678L2560 561L2560 388L2327 388L2327 604L2095 604L2095 287L1862 287L1862 229L1629 229L1629 532L1396 532L1396 561L1164 561L1164 172L931 172L931 215L698 215L698 489L465 489L465 388L233 388L233 604L0 604Z" fill="#e7f0be"></path><path d="M0 1038L233 1038L233 822L465 822L465 1110L698 1110L698 663L931 663L931 764L1164 764L1164 865L1396 865L1396 937L1629 937L1629 505L1862 505L1862 606L2095 606L2095 951L2327 951L2327 937L2560 937L2560 1081L2560 676L2560 604L2327 604L2327 748L2095 748L2095 460L1862 460L1862 330L1629 330L1629 618L1396 618L1396 705L1164 705L1164 417L931 417L931 301L698 301L698 733L465 733L465 503L233 503L233 733L0 733Z" fill="#dae7aa"></path><path d="M0 1196L233 1196L233 1124L465 1124L465 1225L698 1225L698 851L931 851L931 908L1164 908L1164 1139L1396 1139L1396 1067L1629 1067L1629 721L1862 721L1862 879L2095 879L2095 1139L2327 1139L2327 1182L2560 1182L2560 1211L2560 1079L2560 935L2327 935L2327 949L2095 949L2095 604L1862 604L1862 503L1629 503L1629 935L1396 935L1396 863L1164 863L1164 762L931 762L931 661L698 661L698 1108L465 1108L465 820L233 820L233 1036L0 1036Z" fill="#cdde97"></path><path d="M0 1441L233 1441L233 1441L465 1441L465 1441L698 1441L698 1441L931 1441L931 1441L1164 1441L1164 1441L1396 1441L1396 1441L1629 1441L1629 1441L1862 1441L1862 1441L2095 1441L2095 1441L2327 1441L2327 1441L2560 1441L2560 1441L2560 1209L2560 1180L2327 1180L2327 1137L2095 1137L2095 877L1862 877L1862 719L1629 719L1629 1065L1396 1065L1396 1137L1164 1137L1164 906L931 906L931 849L698 849L698 1223L465 1223L465 1122L233 1122L233 1194L0 1194Z" fill="#c0d684"></path></svg>