<svg id="visual" viewBox="0 0 2560 1440" width="2560" height="1440" xmlns="http://www.w3.org/2000/svg" xmlns:xlink="http://www.w3.org/1999/xlink" version="1.1"><path d="M0 73L233 73L233 145L465 145L465 116L698 116L698 145L931 145L931 87L1164 87L1164 87L1396 87L1396 131L1629 131L1629 145L1862 145L1862 102L2095 102L2095 131L2327 131L2327 145L2560 145L2560 87L2560 0L2560 0L2327 0L2327 0L2095 0L2095 0L1862 0L1862 0L1629 0L1629 0L1396 0L1396 0L1164 0L1164 0L931 0L931 0L698 0L698 0L465 0L465 0L233 0L233 0L0 0Z" fill="#f2f3d9"></path><path d="M0 174L233 174L233 203L465 203L465 203L698 203L698 203L931 203L931 145L1164 145L1164 174L1396 174L1396 217L1629 217L1629 246L1862 246L1862 174L2095 174L2095 188L2327 188L2327 217L2560 217L2560 188L2560 85L2560 143L2327 143L2327 129L2095 129L2095 100L1862 100L1862 143L1629 143L1629 129L1396 129L1396 85L1164 85L1164 85L931 85L931 143L698 143L698 114L465 114L465 143L233 143L233 71L0 71Z" fill="#dfe5c9"></path><path d="M0 318L233 318L233 303L465 303L465 332L698 332L698 332L931 332L931 260L1164 260L1164 361L1396 361L1396 347L1629 347L1629 390L1862 390L1862 347L2095 347L2095 318L2327 318L2327 332L2560 332L2560 318L2560 186L2560 215L2327 215L2327 186L2095 186L2095 172L1862 172L1862 244L1629 244L1629 215L1396 215L1396 172L1164 172L1164 143L931 143L931 201L698 201L698 201L465 201L465 201L233 201L233 172L0 172Z" fill="#cbd8ba"></path><path d="M0 678L233 678L233 534L465 534L465 591L698 591L698 620L931 620L931 519L1164 519L1164 606L1396 606L1396 606L1629 606L1629 663L1862 663L1862 649L2095 649L2095 692L2327 692L2327 635L2560 635L2560 577L2560 316L2560 330L2327 330L2327 316L2095 316L2095 345L1862 345L1862 388L1629 388L1629 345L1396 345L1396 359L1164 359L1164 258L931 258L931 330L698 330L698 330L465 330L465 301L233 301L233 316L0 316Z" fill="#b6caac"></path><path d="M0 779L233 779L233 620L465 620L465 692L698 692L698 692L931 692L931 620L1164 620L1164 663L1396 663L1396 678L1629 678L1629 750L1862 750L1862 721L2095 721L2095 764L2327 764L2327 721L2560 721L2560 649L2560 575L2560 633L2327 633L2327 690L2095 690L2095 647L1862 647L1862 661L1629 661L1629 604L1396 604L1396 604L1164 604L1164 517L931 517L931 618L698 618L698 589L465 589L465 532L233 532L233 676L0 676Z" fill="#a1bd9f"></path><path d="M0 966L233 966L233 793L465 793L465 836L698 836L698 894L931 894L931 822L1164 822L1164 879L1396 879L1396 807L1629 807L1629 908L1862 908L1862 865L2095 865L2095 923L2327 923L2327 894L2560 894L2560 779L2560 647L2560 719L2327 719L2327 762L2095 762L2095 719L1862 719L1862 748L1629 748L1629 676L1396 676L1396 661L1164 661L1164 618L931 618L931 690L698 690L698 690L465 690L465 618L233 618L233 777L0 777Z" fill="#8cb093"></path><path d="M0 1023L233 1023L233 879L465 879L465 908L698 908L698 980L931 980L931 908L1164 908L1164 951L1396 951L1396 865L1629 865L1629 980L1862 980L1862 923L2095 923L2095 995L2327 995L2327 966L2560 966L2560 836L2560 777L2560 892L2327 892L2327 921L2095 921L2095 863L1862 863L1862 906L1629 906L1629 805L1396 805L1396 877L1164 877L1164 820L931 820L931 892L698 892L698 834L465 834L465 791L233 791L233 964L0 964Z" fill="#76a388"></path><path d="M0 1211L233 1211L233 1225L465 1225L465 1254L698 1254L698 1211L931 1211L931 1239L1164 1239L1164 1239L1396 1239L1396 1254L1629 1254L1629 1254L1862 1254L1862 1239L2095 1239L2095 1225L2327 1225L2327 1211L2560 1211L2560 1225L2560 834L2560 964L2327 964L2327 993L2095 993L2095 921L1862 921L1862 978L1629 978L1629 863L1396 863L1396 949L1164 949L1164 906L931 906L931 978L698 978L698 906L465 906L465 877L233 877L233 1021L0 1021Z" fill="#60967f"></path><path d="M0 1311L233 1311L233 1326L465 1326L465 1340L698 1340L698 1326L931 1326L931 1340L1164 1340L1164 1326L1396 1326L1396 1340L1629 1340L1629 1340L1862 1340L1862 1326L2095 1326L2095 1326L2327 1326L2327 1311L2560 1311L2560 1326L2560 1223L2560 1209L2327 1209L2327 1223L2095 1223L2095 1237L1862 1237L1862 1252L1629 1252L1629 1252L1396 1252L1396 1237L1164 1237L1164 1237L931 1237L931 1209L698 1209L698 1252L465 1252L465 1223L233 1223L233 1209L0 1209Z" fill="#498976"></path><path d="M0 1355L233 1355L233 1398L465 1398L465 1398L698 1398L698 1369L931 1369L931 1398L1164 1398L1164 1398L1396 1398L1396 1398L1629 1398L1629 1383L1862 1383L1862 1398L2095 1398L2095 1398L2327 1398L2327 1383L2560 1383L2560 1398L2560 1324L2560 1309L2327 1309L2327 1324L2095 1324L2095 1324L1862 1324L1862 1338L1629 1338L1629 1338L1396 1338L1396 1324L1164 1324L1164 1338L931 1338L931 1324L698 1324L698 1338L465 1338L465 1324L233 1324L233 1309L0 1309Z" fill="#2e7c6f"></path><path d="M0 1441L233 1441L233 1441L465 1441L465 1441L698 1441L698 1441L931 1441L931 1441L1164 1441L1164 1441L1396 1441L1396 1441L1629 1441L1629 1441L1862 1441L1862 1441L2095 1441L2095 1441L2327 1441L2327 1441L2560 1441L2560 1441L2560 1396L2560 1381L2327 1381L2327 1396L2095 1396L2095 1396L1862 1396L1862 1381L1629 1381L1629 1396L1396 1396L1396 1396L1164 1396L1164 1396L931 1396L931 1367L698 1367L698 1396L465 1396L465 1396L233 1396L233 1353L0 1353Z" fill="#006f68"></path></svg>